# xmcd
#
# Track frame offsets:
#	150
#	13625
#	26855
#	36400
#	52731
#	69476
#	81863
#	94643
#	107918
#	118958
#	132065
#	142148
#	153281
#	162917
#	176489
#	188953
#
# Disc length: 2711 seconds
#
# Revision: 3
# Processed by: cddbd v1.5.2PL0 Copyright (c) Steve Scherf et al.
# Submitted via: EasyCDDAExtractor 2010.6.0.0
#
DISCID=d90a9510
DTITLE=Various Artist - Cowboy Lieder  CD 03
DYEAR=1900
DGENRE=Country
TTITLE0=Hans Bardeleben - Alabama-Song
TTITLE1=Kilima Hawaiians - Cowboy's Romantik
TTITLE2=Illo Schieder - Sieben einsame Tage
TTITLE3=Kilima Hawaiians - Cowboy's Wiegenlied
TTITLE4=Bruce Low - Tabak und Rum
TTITLE5=Willy Hagara - Casetta in Canada
TTITLE6=Kilima Hawaiians - Lagerfeuer
TTITLE7=Ilja Glusgal - Mein roter Bruder wohnt in Arizona
TTITLE8=Gerhard Wendland - Bei uns in Laramie
TTITLE9=Kilima Hawaiians - Texas Polka
TTITLE10=Bruce Low - Wenn die Sonne scheint n Texas
TTITLE11=Jost Wöhrmann - Die Jenny aus Nevada
TTITLE12=Peter Alexander - Santa Fe
TTITLE13=Jost Wöhrmann - Hol' über, Old Joe
TTITLE14=Kilima Hawaiians - Ilona
TTITLE15=Jost Wöhrmann - Ihr Blauen Berge
EXTD=
EXTT0=
EXTT1=
EXTT2=
EXTT3=
EXTT4=
EXTT5=
EXTT6=
EXTT7=
EXTT8=
EXTT9=
EXTT10=
EXTT11=
EXTT12=
EXTT13=
EXTT14=
EXTT15=
PLAYORDER=
